<svg xmlns="http://www.w3.org/2000/svg" xmlns:svg="http://www.w3.org/2000/svg" xmlns:xlink="http://www.w3.org/1999/xlink" version="1.0" height="850.0517749786376pt" width="1214.9879837036133pt" viewBox="95.10000000000002 452.1 1222.9879837036133 856.0517749786376" ><defs><style type="text/css">
            @font-face {
                font-family: 'noto_regular';
                src: url('https://app.creately.com/diagram/assets/fonts/noto/noto-regular.woff') format('woff'),
                     url('https://app.creately.com/diagram/assets/fonts/noto/noto-regular.woff2') format('woff2');
                font-weight: normal;
                font-style: normal;
            }
        p {
            margin: 0;
        }
        </style></defs><defs><style>
            span{ display: inline-block; }
        </style></defs><g id="9tkrgj35lx"><g transform="translate(100.10000000000002 455.1)"><rect x="0" y="0" width="1214.9879837036133" height="850.0517749786377" fill="rgba(220,231,255,1)" stroke="#dce7ff" stroke-width="1.5" stroke-linecap="round" stroke-linejoin="round"/></g></g><g id="2cxml3kixp"><g transform="translate(185 675)"><rect x="0" y="0" width="100" height="100" fill="rgba(181,222,166,1)" stroke="#1f3650" stroke-width="3" stroke-linecap="round" stroke-linejoin="round"/></g><g transform="translate(203.5, 715.5) rotate(0, 31.5, 9.5)" width="63" height="19"><text text-decoration="none" x="4" fill="rgb(0, 0, 0)" font-size="10pt" font-family="Lato"  y="15">Customer</text><text text-decoration="none" x="59" fill="#4b4b4b" font-size="10pt" font-family="noto_regular"  y="15"></text></g></g><g id="1yx1bzq98p"><g transform="translate(460 680)"><rect x="0" y="0" width="149.75" height="88.05" rx="10" ry="10" fill="rgba(70,158,213,1)" stroke="#1f3650" stroke-width="3" stroke-linecap="round" stroke-linejoin="round"/><path d="M 0 30 a 0,0 0 0 1 0,0 h 149.75 a 0,0 0 0 1 0,0 v 48.05 a 10,10 0 0 1 -10,10 h -129.75 a 10,10 0 0 1 -10,-10 z" fill="rgb(255,255,255)" stroke="#1f3650" stroke-width="3" stroke-linecap="round" stroke-linejoin="round" /></g><g transform="translate(469.375, 674.525) rotate(0, 65.5, 49.5)" width="131" height="99"><text text-decoration="none" x="62" fill="rgb(255, 255, 255)" font-size="10pt" font-family="Lato"  y="12">1</text><text text-decoration="none" x="69" fill="rgb(255, 255, 255)" font-size="10pt" font-family="Lato"  y="12"></text><text text-decoration="none" x="61.5" fill="rgb(255, 255, 255)" font-size="10pt" font-family="Lato"  y="28">--</text><text text-decoration="none" x="69.5" fill="rgb(255, 255, 255)" font-size="10pt" font-family="Lato"  y="28"></text><text text-decoration="none" x="27.5" fill="rgb(255, 255, 255)" font-size="10pt" font-family="Lato"  y="44">Check&#160;</text><text text-decoration="none" x="66.5" fill="rgb(255, 255, 255)" font-size="10pt" font-family="Lato"  y="44">Status</text><text text-decoration="none" x="103.5" fill="rgb(255, 255, 255)" font-size="10pt" font-family="Lato"  y="44"></text><text text-decoration="none" x="8" fill="rgb(255, 255, 255)" font-size="10pt" font-family="Lato"  y="60">//This&#160;</text><text text-decoration="none" x="46" fill="rgb(255, 255, 255)" font-size="10pt" font-family="Lato"  y="60">is&#160;</text><text text-decoration="none" x="59" fill="rgb(255, 255, 255)" font-size="10pt" font-family="Lato"  y="60">a&#160;</text><text text-decoration="none" x="69" fill="rgb(255, 255, 255)" font-size="10pt" font-family="Lato"  y="60">comment</text><text text-decoration="none" x="123" fill="rgb(255, 255, 255)" font-size="10pt" font-family="Lato"  y="60"></text><text text-decoration="none" x="7" fill="rgb(255, 255, 255)" font-size="10pt" font-family="Lato"  y="76">//&#160;</text><text text-decoration="none" x="20" fill="rgb(255, 255, 255)" font-size="10pt" font-family="Lato"  y="76">--&#160;</text><text text-decoration="none" x="31" fill="rgb(255, 255, 255)" font-size="10pt" font-family="Lato"  y="76">This&#160;</text><text text-decoration="none" x="59" fill="rgb(255, 255, 255)" font-size="10pt" font-family="Lato"  y="76">is&#160;</text><text text-decoration="none" x="72" fill="rgb(255, 255, 255)" font-size="10pt" font-family="Lato"  y="76">a&#160;</text><text text-decoration="none" x="82" fill="rgb(255, 255, 255)" font-size="10pt" font-family="Lato"  y="76">section&#160;</text><text text-decoration="none" x="49.5" fill="rgb(255, 255, 255)" font-size="10pt" font-family="Lato"  y="95">break</text><text text-decoration="none" x="81.5" fill="#4b4b4b" font-size="10pt" font-family="noto_regular"  y="95"></text></g><g transform="translate(498.875, 715) rotate(0, 36, 0)" width="72" height="18"><text text-decoration="none" x="3.5" fill="rgb(75, 75, 75)" font-size="10pt" font-family="noto_regular"  y="15">Description</text><text text-decoration="none" x="68.5" fill="#4b4b4b" font-size="10pt" font-family="noto_regular"  y="15"></text></g></g><g id="1np08ne9wz"><g transform="translate(780 560)"><rect x="0" y="0" width="150" height="88.05" rx="10" ry="10" fill="rgba(70,158,213,1)" stroke="#1f3650" stroke-width="3" stroke-linecap="round" stroke-linejoin="round"/><path d="M 0 30 a 0,0 0 0 1 0,0 h 150 a 0,0 0 0 1 0,0 v 48.05 a 10,10 0 0 1 -10,10 h -130 a 10,10 0 0 1 -10,-10 z" fill="rgb(255,255,255)" stroke="#1f3650" stroke-width="3" stroke-linecap="round" stroke-linejoin="round" /></g><g transform="translate(789.5, 554.525) rotate(0, 65.5, 49.5)" width="131" height="99"><text text-decoration="none" x="62" fill="rgb(255, 255, 255)" font-size="10pt" font-family="Lato"  y="12">2</text><text text-decoration="none" x="69" fill="rgb(255, 255, 255)" font-size="10pt" font-family="Lato"  y="12"></text><text text-decoration="none" x="61.5" fill="rgb(255, 255, 255)" font-size="10pt" font-family="Lato"  y="28">--</text><text text-decoration="none" x="69.5" fill="rgb(255, 255, 255)" font-size="10pt" font-family="Lato"  y="28"></text><text text-decoration="none" x="30.5" fill="rgb(255, 255, 255)" font-size="10pt" font-family="Lato"  y="44">Take&#160;</text><text text-decoration="none" x="62.5" fill="rgb(255, 255, 255)" font-size="10pt" font-family="Lato"  y="44">Orders</text><text text-decoration="none" x="100.5" fill="rgb(255, 255, 255)" font-size="10pt" font-family="Lato"  y="44"></text><text text-decoration="none" x="8" fill="rgb(255, 255, 255)" font-size="10pt" font-family="Lato"  y="60">//This&#160;</text><text text-decoration="none" x="46" fill="rgb(255, 255, 255)" font-size="10pt" font-family="Lato"  y="60">is&#160;</text><text text-decoration="none" x="59" fill="rgb(255, 255, 255)" font-size="10pt" font-family="Lato"  y="60">a&#160;</text><text text-decoration="none" x="69" fill="rgb(255, 255, 255)" font-size="10pt" font-family="Lato"  y="60">comment</text><text text-decoration="none" x="123" fill="rgb(255, 255, 255)" font-size="10pt" font-family="Lato"  y="60"></text><text text-decoration="none" x="7" fill="rgb(255, 255, 255)" font-size="10pt" font-family="Lato"  y="76">//&#160;</text><text text-decoration="none" x="20" fill="rgb(255, 255, 255)" font-size="10pt" font-family="Lato"  y="76">--&#160;</text><text text-decoration="none" x="31" fill="rgb(255, 255, 255)" font-size="10pt" font-family="Lato"  y="76">This&#160;</text><text text-decoration="none" x="59" fill="rgb(255, 255, 255)" font-size="10pt" font-family="Lato"  y="76">is&#160;</text><text text-decoration="none" x="72" fill="rgb(255, 255, 255)" font-size="10pt" font-family="Lato"  y="76">a&#160;</text><text text-decoration="none" x="82" fill="rgb(255, 255, 255)" font-size="10pt" font-family="Lato"  y="76">section&#160;</text><text text-decoration="none" x="49.5" fill="rgb(255, 255, 255)" font-size="10pt" font-family="Lato"  y="95">break</text><text text-decoration="none" x="81.5" fill="#4b4b4b" font-size="10pt" font-family="noto_regular"  y="95"></text></g><g transform="translate(819, 595) rotate(0, 36, 0)" width="72" height="18"><text text-decoration="none" x="3.5" fill="rgb(75, 75, 75)" font-size="10pt" font-family="noto_regular"  y="15">Description</text><text text-decoration="none" x="68.5" fill="#4b4b4b" font-size="10pt" font-family="noto_regular"  y="15"></text></g></g><g id="22ljrrpl9f"><g transform="translate(780 815)"><rect x="0" y="0" width="150" height="88.05" rx="10" ry="10" fill="rgba(70,158,213,1)" stroke="#1f3650" stroke-width="3" stroke-linecap="round" stroke-linejoin="round"/><path d="M 0 30 a 0,0 0 0 1 0,0 h 150 a 0,0 0 0 1 0,0 v 48.05 a 10,10 0 0 1 -10,10 h -130 a 10,10 0 0 1 -10,-10 z" fill="rgb(255,255,255)" stroke="#1f3650" stroke-width="3" stroke-linecap="round" stroke-linejoin="round" /></g><g transform="translate(789.5, 809.525) rotate(0, 65.5, 49.5)" width="131" height="99"><text text-decoration="none" x="62" fill="rgb(255, 255, 255)" font-size="10pt" font-family="Lato"  y="12">3</text><text text-decoration="none" x="69" fill="rgb(255, 255, 255)" font-size="10pt" font-family="Lato"  y="12"></text><text text-decoration="none" x="61.5" fill="rgb(255, 255, 255)" font-size="10pt" font-family="Lato"  y="28">--</text><text text-decoration="none" x="69.5" fill="rgb(255, 255, 255)" font-size="10pt" font-family="Lato"  y="28"></text><text text-decoration="none" x="29" fill="rgb(255, 255, 255)" font-size="10pt" font-family="Lato"  y="44">Cancel&#160;</text><text text-decoration="none" x="71" fill="rgb(255, 255, 255)" font-size="10pt" font-family="Lato"  y="44">Order</text><text text-decoration="none" x="102" fill="rgb(255, 255, 255)" font-size="10pt" font-family="Lato"  y="44"></text><text text-decoration="none" x="8" fill="rgb(255, 255, 255)" font-size="10pt" font-family="Lato"  y="60">//This&#160;</text><text text-decoration="none" x="46" fill="rgb(255, 255, 255)" font-size="10pt" font-family="Lato"  y="60">is&#160;</text><text text-decoration="none" x="59" fill="rgb(255, 255, 255)" font-size="10pt" font-family="Lato"  y="60">a&#160;</text><text text-decoration="none" x="69" fill="rgb(255, 255, 255)" font-size="10pt" font-family="Lato"  y="60">comment</text><text text-decoration="none" x="123" fill="rgb(255, 255, 255)" font-size="10pt" font-family="Lato"  y="60"></text><text text-decoration="none" x="7" fill="rgb(255, 255, 255)" font-size="10pt" font-family="Lato"  y="76">//&#160;</text><text text-decoration="none" x="20" fill="rgb(255, 255, 255)" font-size="10pt" font-family="Lato"  y="76">--&#160;</text><text text-decoration="none" x="31" fill="rgb(255, 255, 255)" font-size="10pt" font-family="Lato"  y="76">This&#160;</text><text text-decoration="none" x="59" fill="rgb(255, 255, 255)" font-size="10pt" font-family="Lato"  y="76">is&#160;</text><text text-decoration="none" x="72" fill="rgb(255, 255, 255)" font-size="10pt" font-family="Lato"  y="76">a&#160;</text><text text-decoration="none" x="82" fill="rgb(255, 255, 255)" font-size="10pt" font-family="Lato"  y="76">section&#160;</text><text text-decoration="none" x="49.5" fill="rgb(255, 255, 255)" font-size="10pt" font-family="Lato"  y="95">break</text><text text-decoration="none" x="81.5" fill="#4b4b4b" font-size="10pt" font-family="noto_regular"  y="95"></text></g><g transform="translate(819, 850) rotate(0, 36, 0)" width="72" height="18"><text text-decoration="none" x="3.5" fill="rgb(75, 75, 75)" font-size="10pt" font-family="noto_regular"  y="15">Description</text><text text-decoration="none" x="68.5" fill="#4b4b4b" font-size="10pt" font-family="noto_regular"  y="15"></text></g></g><g id="cqlqkze2zl"><g transform="translate(735 1125)"><rect x="0" y="0" width="150" height="88.05" rx="10" ry="10" fill="rgba(70,158,213,1)" stroke="#1f3650" stroke-width="3" stroke-linecap="round" stroke-linejoin="round"/><path d="M 0 30 a 0,0 0 0 1 0,0 h 150 a 0,0 0 0 1 0,0 v 48.05 a 10,10 0 0 1 -10,10 h -130 a 10,10 0 0 1 -10,-10 z" fill="rgb(255,255,255)" stroke="#1f3650" stroke-width="3" stroke-linecap="round" stroke-linejoin="round" /></g><g transform="translate(744.5, 1119.525) rotate(0, 65.5, 49.5)" width="131" height="99"><text text-decoration="none" x="62" fill="rgb(255, 255, 255)" font-size="10pt" font-family="Lato"  y="12">6</text><text text-decoration="none" x="69" fill="rgb(255, 255, 255)" font-size="10pt" font-family="Lato"  y="12"></text><text text-decoration="none" x="61.5" fill="rgb(255, 255, 255)" font-size="10pt" font-family="Lato"  y="28">--</text><text text-decoration="none" x="69.5" fill="rgb(255, 255, 255)" font-size="10pt" font-family="Lato"  y="28"></text><text text-decoration="none" x="26.5" fill="rgb(255, 255, 255)" font-size="10pt" font-family="Lato"  y="44">Issue&#160;</text><text text-decoration="none" x="61.5" fill="rgb(255, 255, 255)" font-size="10pt" font-family="Lato"  y="44">Receipt</text><text text-decoration="none" x="104.5" fill="rgb(255, 255, 255)" font-size="10pt" font-family="Lato"  y="44"></text><text text-decoration="none" x="8" fill="rgb(255, 255, 255)" font-size="10pt" font-family="Lato"  y="60">//This&#160;</text><text text-decoration="none" x="46" fill="rgb(255, 255, 255)" font-size="10pt" font-family="Lato"  y="60">is&#160;</text><text text-decoration="none" x="59" fill="rgb(255, 255, 255)" font-size="10pt" font-family="Lato"  y="60">a&#160;</text><text text-decoration="none" x="69" fill="rgb(255, 255, 255)" font-size="10pt" font-family="Lato"  y="60">comment</text><text text-decoration="none" x="123" fill="rgb(255, 255, 255)" font-size="10pt" font-family="Lato"  y="60"></text><text text-decoration="none" x="7" fill="rgb(255, 255, 255)" font-size="10pt" font-family="Lato"  y="76">//&#160;</text><text text-decoration="none" x="20" fill="rgb(255, 255, 255)" font-size="10pt" font-family="Lato"  y="76">--&#160;</text><text text-decoration="none" x="31" fill="rgb(255, 255, 255)" font-size="10pt" font-family="Lato"  y="76">This&#160;</text><text text-decoration="none" x="59" fill="rgb(255, 255, 255)" font-size="10pt" font-family="Lato"  y="76">is&#160;</text><text text-decoration="none" x="72" fill="rgb(255, 255, 255)" font-size="10pt" font-family="Lato"  y="76">a&#160;</text><text text-decoration="none" x="82" fill="rgb(255, 255, 255)" font-size="10pt" font-family="Lato"  y="76">section&#160;</text><text text-decoration="none" x="49.5" fill="rgb(255, 255, 255)" font-size="10pt" font-family="Lato"  y="95">break</text><text text-decoration="none" x="81.5" fill="#4b4b4b" font-size="10pt" font-family="noto_regular"  y="95"></text></g><g transform="translate(774, 1160) rotate(0, 36, 0)" width="72" height="18"><text text-decoration="none" x="3.5" fill="rgb(75, 75, 75)" font-size="10pt" font-family="noto_regular"  y="15">Description</text><text text-decoration="none" x="68.5" fill="#4b4b4b" font-size="10pt" font-family="noto_regular"  y="15"></text></g></g><g id="24dblu28ar"><g transform="translate(1075 550)"><rect x="0" y="0" width="100" height="100" fill="rgba(181,222,166,1)" stroke="#1f3650" stroke-width="3" stroke-linecap="round" stroke-linejoin="round"/></g><g transform="translate(1100.5, 590.5) rotate(0, 24.5, 9.5)" width="49" height="19"><text text-decoration="none" x="3" fill="rgb(0, 0, 0)" font-size="10pt" font-family="Lato"  y="15">Cashier</text><text text-decoration="none" x="46" fill="#4b4b4b" font-size="10pt" font-family="noto_regular"  y="15"></text></g></g><g id="na5d0ai5sr"><g transform="translate(1050 815)"><rect x="0" y="0" width="150" height="88.05" rx="10" ry="10" fill="rgba(70,158,213,1)" stroke="#1f3650" stroke-width="3" stroke-linecap="round" stroke-linejoin="round"/><path d="M 0 30 a 0,0 0 0 1 0,0 h 150 a 0,0 0 0 1 0,0 v 48.05 a 10,10 0 0 1 -10,10 h -130 a 10,10 0 0 1 -10,-10 z" fill="rgb(255,255,255)" stroke="#1f3650" stroke-width="3" stroke-linecap="round" stroke-linejoin="round" /></g><g transform="translate(1059.5, 809.525) rotate(0, 65.5, 49.5)" width="131" height="99"><text text-decoration="none" x="62" fill="rgb(255, 255, 255)" font-size="10pt" font-family="Lato"  y="12">4</text><text text-decoration="none" x="69" fill="rgb(255, 255, 255)" font-size="10pt" font-family="Lato"  y="12"></text><text text-decoration="none" x="61.5" fill="rgb(255, 255, 255)" font-size="10pt" font-family="Lato"  y="28">--</text><text text-decoration="none" x="69.5" fill="rgb(255, 255, 255)" font-size="10pt" font-family="Lato"  y="28"></text><text text-decoration="none" x="36" fill="rgb(255, 255, 255)" font-size="10pt" font-family="Lato"  y="44">Input&#160;</text><text text-decoration="none" x="68" fill="rgb(255, 255, 255)" font-size="10pt" font-family="Lato"  y="44">Data</text><text text-decoration="none" x="95" fill="rgb(255, 255, 255)" font-size="10pt" font-family="Lato"  y="44"></text><text text-decoration="none" x="8" fill="rgb(255, 255, 255)" font-size="10pt" font-family="Lato"  y="60">//This&#160;</text><text text-decoration="none" x="46" fill="rgb(255, 255, 255)" font-size="10pt" font-family="Lato"  y="60">is&#160;</text><text text-decoration="none" x="59" fill="rgb(255, 255, 255)" font-size="10pt" font-family="Lato"  y="60">a&#160;</text><text text-decoration="none" x="69" fill="rgb(255, 255, 255)" font-size="10pt" font-family="Lato"  y="60">comment</text><text text-decoration="none" x="123" fill="rgb(255, 255, 255)" font-size="10pt" font-family="Lato"  y="60"></text><text text-decoration="none" x="7" fill="rgb(255, 255, 255)" font-size="10pt" font-family="Lato"  y="76">//&#160;</text><text text-decoration="none" x="20" fill="rgb(255, 255, 255)" font-size="10pt" font-family="Lato"  y="76">--&#160;</text><text text-decoration="none" x="31" fill="rgb(255, 255, 255)" font-size="10pt" font-family="Lato"  y="76">This&#160;</text><text text-decoration="none" x="59" fill="rgb(255, 255, 255)" font-size="10pt" font-family="Lato"  y="76">is&#160;</text><text text-decoration="none" x="72" fill="rgb(255, 255, 255)" font-size="10pt" font-family="Lato"  y="76">a&#160;</text><text text-decoration="none" x="82" fill="rgb(255, 255, 255)" font-size="10pt" font-family="Lato"  y="76">section&#160;</text><text text-decoration="none" x="49.5" fill="rgb(255, 255, 255)" font-size="10pt" font-family="Lato"  y="95">break</text><text text-decoration="none" x="81.5" fill="#4b4b4b" font-size="10pt" font-family="noto_regular"  y="95"></text></g><g transform="translate(1089, 850) rotate(0, 36, 0)" width="72" height="18"><text text-decoration="none" x="3.5" fill="rgb(75, 75, 75)" font-size="10pt" font-family="noto_regular"  y="15">Description</text><text text-decoration="none" x="68.5" fill="#4b4b4b" font-size="10pt" font-family="noto_regular"  y="15"></text></g></g><g id="243jqlxsqx"><g transform="translate(1045 1000)"><path d="M 200.5,0 L 0,0 L 0,35 L 200.5,35" fill="rgba(215,80,80,1)" stroke="#1f3650" stroke-width="3" stroke-linecap="round" stroke-linejoin="round"/></g><g transform="translate(1138.25, 1008) rotate(0, 7, 9.5)" width="14" height="19"><text text-decoration="none" x="0.5" fill="rgb(255, 255, 255)" font-size="10pt" font-family="Lato"  y="15">ID</text><text text-decoration="none" x="13.5" fill="#4b4b4b" font-size="10pt" font-family="noto_regular"  y="15"></text></g></g><g id="6iewjhvr5q"><g transform="translate(1050 1120)"><rect x="0" y="0" width="150.5" height="88.05" rx="10" ry="10" fill="rgba(70,158,213,1)" stroke="#1f3650" stroke-width="3" stroke-linecap="round" stroke-linejoin="round"/><path d="M 0 30 a 0,0 0 0 1 0,0 h 150.5 a 0,0 0 0 1 0,0 v 48.05 a 10,10 0 0 1 -10,10 h -130.5 a 10,10 0 0 1 -10,-10 z" fill="rgb(255,255,255)" stroke="#1f3650" stroke-width="3" stroke-linecap="round" stroke-linejoin="round" /></g><g transform="translate(1059.75, 1114.525) rotate(0, 65.5, 49.5)" width="131" height="99"><text text-decoration="none" x="62" fill="rgb(255, 255, 255)" font-size="10pt" font-family="Lato"  y="12">5</text><text text-decoration="none" x="69" fill="rgb(255, 255, 255)" font-size="10pt" font-family="Lato"  y="12"></text><text text-decoration="none" x="61.5" fill="rgb(255, 255, 255)" font-size="10pt" font-family="Lato"  y="28">--</text><text text-decoration="none" x="69.5" fill="rgb(255, 255, 255)" font-size="10pt" font-family="Lato"  y="28"></text><text text-decoration="none" x="33" fill="rgb(255, 255, 255)" font-size="10pt" font-family="Lato"  y="44">Description</text><text text-decoration="none" x="98" fill="rgb(255, 255, 255)" font-size="10pt" font-family="Lato"  y="44"></text><text text-decoration="none" x="8" fill="rgb(255, 255, 255)" font-size="10pt" font-family="Lato"  y="60">//This&#160;</text><text text-decoration="none" x="46" fill="rgb(255, 255, 255)" font-size="10pt" font-family="Lato"  y="60">is&#160;</text><text text-decoration="none" x="59" fill="rgb(255, 255, 255)" font-size="10pt" font-family="Lato"  y="60">a&#160;</text><text text-decoration="none" x="69" fill="rgb(255, 255, 255)" font-size="10pt" font-family="Lato"  y="60">comment</text><text text-decoration="none" x="123" fill="rgb(255, 255, 255)" font-size="10pt" font-family="Lato"  y="60"></text><text text-decoration="none" x="7" fill="rgb(255, 255, 255)" font-size="10pt" font-family="Lato"  y="76">//&#160;</text><text text-decoration="none" x="20" fill="rgb(255, 255, 255)" font-size="10pt" font-family="Lato"  y="76">--&#160;</text><text text-decoration="none" x="31" fill="rgb(255, 255, 255)" font-size="10pt" font-family="Lato"  y="76">This&#160;</text><text text-decoration="none" x="59" fill="rgb(255, 255, 255)" font-size="10pt" font-family="Lato"  y="76">is&#160;</text><text text-decoration="none" x="72" fill="rgb(255, 255, 255)" font-size="10pt" font-family="Lato"  y="76">a&#160;</text><text text-decoration="none" x="82" fill="rgb(255, 255, 255)" font-size="10pt" font-family="Lato"  y="76">section&#160;</text><text text-decoration="none" x="49.5" fill="rgb(255, 255, 255)" font-size="10pt" font-family="Lato"  y="95">break</text><text text-decoration="none" x="81.5" fill="#4b4b4b" font-size="10pt" font-family="noto_regular"  y="95"></text></g><g transform="translate(1089.25, 1155) rotate(0, 36, 0)" width="72" height="18"><text text-decoration="none" x="3.5" fill="rgb(75, 75, 75)" font-size="10pt" font-family="noto_regular"  y="15">Description</text><text text-decoration="none" x="68.5" fill="#4b4b4b" font-size="10pt" font-family="noto_regular"  y="15"></text></g></g><g id="1q7ba557fl"><mask id="bb08e" x="272" y="712" width="201" height="26" maskUnits="userSpaceOnUse"><rect x="272" y="712" width="201" height="26" fill="white" /><rect x="330.5" y="712.5" width="84" height="25" fill="black" /></mask><g mask="url(#bb08e)"><path d="M 285,725 L 460,725" fill="none" stroke="#000000" stroke-width="1.5" stroke-linecap="round" stroke-linejoin="round"/><path d="M 460,725 L 451.30434782608694,719.25 L 451.30434782608694,730.75 Z" fill="rgb(0,0,0)" stroke="#000000" stroke-width="1.5" stroke-linecap="round" stroke-linejoin="round"/></g><g transform="translate(333.5, 715.5)" width="78" height="19"><text text-decoration="none" x="4.5" fill="rgb(0, 0, 0)" font-size="10pt" font-family="Lato"  y="15">Product&#160;</text><text text-decoration="none" x="51.5" fill="rgb(0, 0, 0)" font-size="10pt" font-family="Lato"  y="15">info</text><text text-decoration="none" x="73.5" fill="#4b4b4b" font-size="10pt" font-family="noto_regular"  y="15"></text></g></g><g id="7sqvb56xh6"><mask id="7dd89" x="597" y="592" width="196" height="121" maskUnits="userSpaceOnUse"><rect x="597" y="592" width="196" height="121" fill="white" /><rect x="623.5" y="640" width="143" height="25" fill="black" /></mask><g mask="url(#7dd89)"><path d="M 610,700 L 780,605" fill="none" stroke="#000000" stroke-width="1.5" stroke-linecap="round" stroke-linejoin="round"/><path d="M 780,605 L 769.6042143052764,604.2224998269711 L 775.2141599184233,614.2613498715497 Z" fill="rgb(0,0,0)" stroke="#000000" stroke-width="1.5" stroke-linecap="round" stroke-linejoin="round"/></g><g transform="translate(626.5, 643)" width="137" height="19"><text text-decoration="none" x="9" fill="rgb(0, 0, 0)" font-size="10pt" font-family="Lato"  y="15">Product&#160;</text><text text-decoration="none" x="56" fill="rgb(0, 0, 0)" font-size="10pt" font-family="Lato"  y="15">Confirmation</text><text text-decoration="none" x="128" fill="#4b4b4b" font-size="10pt" font-family="noto_regular"  y="15"></text></g></g><g id="1w1fcf1m4n"><mask id="e4f1d" x="597" y="737" width="196" height="136" maskUnits="userSpaceOnUse"><rect x="597" y="737" width="196" height="136" fill="white" /><rect x="607.5" y="792.5" width="175" height="25" fill="black" /></mask><g mask="url(#e4f1d)"><path d="M 610,750 L 780,860" fill="none" stroke="#000000" stroke-width="1.5" stroke-linecap="round" stroke-linejoin="round"/><path d="M 780,860 L 775.8230847872117,850.4485474384858 L 769.5756950884031,860.1036042457355 Z" fill="rgb(0,0,0)" stroke="#000000" stroke-width="1.5" stroke-linecap="round" stroke-linejoin="round"/></g><g transform="translate(610.5, 795.5)" width="169" height="19"><text text-decoration="none" x="12" fill="rgb(0, 0, 0)" font-size="10pt" font-family="Lato"  y="15">Cancellation&#160;</text><text text-decoration="none" x="85" fill="rgb(0, 0, 0)" font-size="10pt" font-family="Lato"  y="15">Confirmation</text><text text-decoration="none" x="157" fill="#4b4b4b" font-size="10pt" font-family="noto_regular"  y="15"></text></g></g><g id="2ahhgwjdqq"><mask id="bc3de" x="917" y="587" width="171" height="31" maskUnits="userSpaceOnUse"><rect x="917" y="587" width="171" height="31" fill="white" /><rect x="969" y="590" width="67" height="25" fill="black" /></mask><g mask="url(#bc3de)"><path d="M 930,605 L 1002.5,605 L 1002.5,602.5 L 1002.5,600 L 1075,600" fill="none" stroke="#000000" stroke-width="1.5" stroke-linecap="round" stroke-linejoin="round"/><path d="M 1075,600 L 1066.304347826087,594.25 L 1066.304347826087,605.75 Z" fill="rgb(0,0,0)" stroke="#000000" stroke-width="1.5" stroke-linecap="round" stroke-linejoin="round"/></g><g transform="translate(972, 593)" width="61" height="19"><text text-decoration="none" x="4" fill="rgb(0, 0, 0)" font-size="10pt" font-family="Lato"  y="15">Payment&#160;</text><text text-decoration="none" x="57" fill="#4b4b4b" font-size="10pt" font-family="noto_regular"  y="15"></text></g></g><g id="9ppsrgzzpt"><mask id="ecf5e" x="1112" y="637" width="26" height="191" maskUnits="userSpaceOnUse"><rect x="1112" y="637" width="26" height="191" fill="white" /><rect x="1078" y="720" width="94" height="25" fill="black" /></mask><g mask="url(#ecf5e)"><path d="M 1125,650 L 1125,815" fill="none" stroke="#000000" stroke-width="1.5" stroke-linecap="round" stroke-linejoin="round"/><path d="M 1125,815 L 1130.75,806.304347826087 L 1119.25,806.304347826087 Z" fill="rgb(0,0,0)" stroke="#000000" stroke-width="1.5" stroke-linecap="round" stroke-linejoin="round"/></g><g transform="translate(1081, 723)" width="88" height="19"><text text-decoration="none" x="4.5" fill="rgb(0, 0, 0)" font-size="10pt" font-family="Lato"  y="15">Purchase&#160;</text><text text-decoration="none" x="61.5" fill="rgb(0, 0, 0)" font-size="10pt" font-family="Lato"  y="15">info</text><text text-decoration="none" x="83.5" fill="#4b4b4b" font-size="10pt" font-family="noto_regular"  y="15"></text></g></g><g id="1ueziwxb8j"><mask id="a7b96" x="1112" y="892" width="26" height="121" maskUnits="userSpaceOnUse"><rect x="1112" y="892" width="26" height="121" fill="white" /><rect x="1078" y="940" width="94" height="25" fill="black" /></mask><g mask="url(#a7b96)"><path d="M 1125,905 L 1125,1000" fill="none" stroke="#000000" stroke-width="1.5" stroke-linecap="round" stroke-linejoin="round"/><path d="M 1125,1000 L 1130.75,991.304347826087 L 1119.25,991.304347826087 Z" fill="rgb(0,0,0)" stroke="#000000" stroke-width="1.5" stroke-linecap="round" stroke-linejoin="round"/></g><g transform="translate(1081, 943)" width="88" height="19"><text text-decoration="none" x="4.5" fill="rgb(0, 0, 0)" font-size="10pt" font-family="Lato"  y="15">Purchase&#160;</text><text text-decoration="none" x="61.5" fill="rgb(0, 0, 0)" font-size="10pt" font-family="Lato"  y="15">info</text><text text-decoration="none" x="83.5" fill="#4b4b4b" font-size="10pt" font-family="noto_regular"  y="15"></text></g></g><g id="1ljyx6gbhw"><mask id="67d10" x="1112" y="1022" width="26" height="111" maskUnits="userSpaceOnUse"><rect x="1112" y="1022" width="26" height="111" fill="white" /><rect x="1087" y="1065" width="76" height="25" fill="black" /></mask><g mask="url(#67d10)"><path d="M 1125,1035 L 1125,1120" fill="none" stroke="#000000" stroke-width="1.5" stroke-linecap="round" stroke-linejoin="round"/><path d="M 1125,1120 L 1130.75,1111.304347826087 L 1119.25,1111.304347826087 Z" fill="rgb(0,0,0)" stroke="#000000" stroke-width="1.5" stroke-linecap="round" stroke-linejoin="round"/></g><g transform="translate(1090, 1068)" width="70" height="19"><text text-decoration="none" x="5.5" fill="rgb(0, 0, 0)" font-size="10pt" font-family="Lato"  y="15">Billing&#160;</text><text text-decoration="none" x="42.5" fill="rgb(0, 0, 0)" font-size="10pt" font-family="Lato"  y="15">info</text><text text-decoration="none" x="64.5" fill="#4b4b4b" font-size="10pt" font-family="noto_regular"  y="15"></text></g></g><g id="h86v641t9q"><mask id="009a8" x="872" y="1152" width="191" height="31" maskUnits="userSpaceOnUse"><rect x="872" y="1152" width="191" height="31" fill="white" /><rect x="916.5" y="1155" width="102" height="25" fill="black" /></mask><g mask="url(#009a8)"><path d="M 1050,1165 L 967.5,1165 L 967.5,1167.5 L 967.5,1170 L 885,1170" fill="none" stroke="#000000" stroke-width="1.5" stroke-linecap="round" stroke-linejoin="round"/><path d="M 885,1170 L 893.695652173913,1175.75 L 893.695652173913,1164.25 Z" fill="rgb(0,0,0)" stroke="#000000" stroke-width="1.5" stroke-linecap="round" stroke-linejoin="round"/></g><g transform="translate(919.5, 1158)" width="96" height="19"><text text-decoration="none" x="6" fill="rgb(0, 0, 0)" font-size="10pt" font-family="Lato"  y="15">Receipt&#160;</text><text text-decoration="none" x="52" fill="rgb(0, 0, 0)" font-size="10pt" font-family="Lato"  y="15">details</text><text text-decoration="none" x="90" fill="#4b4b4b" font-size="10pt" font-family="noto_regular"  y="15"></text></g></g><g id="89snlxy7e4"><mask id="db71c" x="222" y="762" width="526" height="421" maskUnits="userSpaceOnUse"><rect x="222" y="762" width="526" height="421" fill="white" /><rect x="260.5" y="1157.5" width="54" height="25" fill="black" /></mask><g mask="url(#db71c)"><path d="M 735,1170 L 235,1170 L 235,775" fill="none" stroke="#000000" stroke-width="1.5" stroke-linecap="round" stroke-linejoin="round"/><path d="M 235,775 L 229.25,783.695652173913 L 240.75,783.695652173913 Z" fill="rgb(0,0,0)" stroke="#000000" stroke-width="1.5" stroke-linecap="round" stroke-linejoin="round"/></g><g transform="translate(263.5, 1160.5)" width="48" height="19"><text text-decoration="none" x="2.5" fill="rgb(0, 0, 0)" font-size="10pt" font-family="Lato"  y="15">Receipt</text><text text-decoration="none" x="45.5" fill="#4b4b4b" font-size="10pt" font-family="noto_regular"  y="15"></text></g></g><g id="duwdh6v9d7"><g transform="translate(415 905)"><path d="M 200.5,0 L 0,0 L 0,35 L 200.5,35" fill="rgba(215,80,80,1)" stroke="#1f3650" stroke-width="3" stroke-linecap="round" stroke-linejoin="round"/></g><g transform="translate(508.25, 913) rotate(0, 7, 9.5)" width="14" height="19"><text text-decoration="none" x="0.5" fill="rgb(0, 0, 0)" font-size="10pt" font-family="Lato"  y="15">ID</text><text text-decoration="none" x="13.5" fill="#4b4b4b" font-size="10pt" font-family="noto_regular"  y="15"></text></g></g><g id="8ivht7nxh7"><mask id="9acac" x="477" y="757" width="31" height="161" maskUnits="userSpaceOnUse"><rect x="477" y="757" width="31" height="161" fill="white" /><rect x="465.975" y="816.025" width="55" height="41" fill="black" /></mask><g mask="url(#9acac)"><path d="M 490,770 L 490,836.525 L 492.5,836.525 L 495,836.525 L 495,905" fill="none" stroke="#000000" stroke-width="1.5" stroke-linecap="round" stroke-linejoin="round"/><path d="M 495,905 L 500.75,896.304347826087 L 489.25,896.304347826087 Z" fill="rgb(0,0,0)" stroke="#000000" stroke-width="1.5" stroke-linecap="round" stroke-linejoin="round"/></g><g transform="translate(468.975, 819.025)" width="49" height="35"><text text-decoration="none" x="2.5" fill="rgb(0, 0, 0)" font-size="10pt" font-family="Lato"  y="12">Product</text><text text-decoration="none" x="46.5" fill="rgb(0, 0, 0)" font-size="10pt" font-family="Lato"  y="12"></text><text text-decoration="none" x="5" fill="rgb(0, 0, 0)" font-size="10pt" font-family="Lato"  y="31">status</text><text text-decoration="none" x="44" fill="#4b4b4b" font-size="10pt" font-family="noto_regular"  y="31"></text></g></g><g id="1l83bbm742"><mask id="e2d09" x="562" y="757" width="31" height="161" maskUnits="userSpaceOnUse"><rect x="562" y="757" width="31" height="161" fill="white" /><rect x="545.5" y="814.5" width="59" height="41" fill="black" /></mask><g mask="url(#e2d09)"><path d="M 575,905 L 575,832.75 L 577.5,832.75 L 580,832.75 L 580,770" fill="none" stroke="#000000" stroke-width="1.5" stroke-linecap="round" stroke-linejoin="round"/><path d="M 580,770 L 574.25,778.695652173913 L 585.75,778.695652173913 Z" fill="rgb(0,0,0)" stroke="#000000" stroke-width="1.5" stroke-linecap="round" stroke-linejoin="round"/></g><g transform="translate(548.5, 817.5)" width="53" height="35"><text text-decoration="none" x="3" fill="rgb(0, 0, 0)" font-size="10pt" font-family="Lato"  y="12">Product&#160;</text><text text-decoration="none" x="50" fill="rgb(0, 0, 0)" font-size="10pt" font-family="Lato"  y="12"></text><text text-decoration="none" x="10.5" fill="rgb(0, 0, 0)" font-size="10pt" font-family="Lato"  y="31">name</text><text text-decoration="none" x="42.5" fill="#4b4b4b" font-size="10pt" font-family="noto_regular"  y="31"></text></g></g></svg>